<?xml version="1.0" encoding="iso-8859-1"?>
<!-- Uploaded to: SVG Repo, www.svgrepo.com, Generator: SVG Repo Mixer Tools -->
<svg height="800px" width="800px" version="1.1" id="Layer_1" xmlns="http://www.w3.org/2000/svg" xmlns:xlink="http://www.w3.org/1999/xlink" 
	 viewBox="0 0 473.931 473.931" xml:space="preserve">
<circle style="fill:#357180;" cx="236.966" cy="236.966" r="236.966"/>
<path style="fill:#D0A288;" d="M174.583,127.89c-5.785,0-10.477,2.077-10.477,7.865v90.132c0,5.781,4.692,10.469,10.477,10.469
	c5.781,0,10.466-4.688,10.466-10.469v-90.135C185.049,129.963,180.364,127.89,174.583,127.89z"/>
<g style="opacity:0.8;">
	<path style="fill:#EEE17F;" d="M169.079,95.172c1.979-5.684,1.598-14.267,1.598-14.267s18.971,14.436,17.62,32.333
		c-0.543,7.121-5.882,12.932-13.149,12.939c-7.263-0.007-13.149-5.792-13.149-12.939C162,106.285,166.748,101.869,169.079,95.172z"
		/>
</g>
<g style="opacity:0.8;">
	<path style="fill:#FFFFFF;" d="M171.316,106.285c1.25-3.596,1.01-9.033,1.01-9.033s12.015,9.141,11.162,20.486
		c-0.34,4.516-3.731,8.191-8.333,8.194c-4.599-0.004-8.329-3.667-8.329-8.194C166.83,113.327,169.839,110.532,171.316,106.285z"/>
</g>
<path style="fill:#D0A288;" d="M301.582,127.89c-5.781,0-10.469,2.077-10.469,7.865v90.132c0,5.781,4.688,10.469,10.469,10.469
	c5.785,0,10.469-4.688,10.469-10.469v-90.135C312.052,129.963,307.367,127.89,301.582,127.89z"/>
<g style="opacity:0.8;">
	<path style="fill:#EEE17F;" d="M295.172,95.172c1.979-5.684,1.598-14.267,1.598-14.267s18.971,14.436,17.62,32.333
		c-0.543,7.121-5.882,12.932-13.145,12.939c-7.267-0.007-13.152-5.792-13.152-12.939
		C288.093,106.285,292.845,101.869,295.172,95.172z"/>
</g>
<g style="opacity:0.8;">
	<path style="fill:#FFFFFF;" d="M297.414,106.285c1.246-3.596,1.007-9.033,1.007-9.033s12.019,9.141,11.165,20.486
		c-0.341,4.516-3.731,8.191-8.333,8.194c-4.602-0.004-8.337-3.667-8.337-8.194C292.92,113.327,295.932,110.532,297.414,106.285z"/>
</g>
<path style="fill:#D0A288;" d="M239.446,124.473c-5.781,0-10.473,2.077-10.473,7.861v90.128c0,5.788,4.692,10.477,10.473,10.477
	c5.785,0,10.466-4.688,10.466-10.477v-90.128C249.916,126.55,245.231,124.473,239.446,124.473z"/>
<g style="opacity:0.8;">
	<path style="fill:#EEE17F;" d="M233.722,91.535c1.979-5.684,1.598-14.267,1.598-14.267s18.967,14.439,17.616,32.333
		c-0.539,7.124-5.882,12.935-13.149,12.939c-7.259-0.004-13.145-5.792-13.145-12.939C226.642,102.644,231.387,98.232,233.722,91.535
		z"/>
</g>
<g style="opacity:0.8;">
	<path style="fill:#FFFFFF;" d="M235.955,102.644c1.25-3.596,1.014-9.036,1.014-9.036s12.019,9.145,11.162,20.49
		c-0.341,4.513-3.727,8.187-8.329,8.191c-4.599-0.004-8.333-3.667-8.333-8.191C231.469,109.686,234.477,106.891,235.955,102.644z"/>
</g>
<path style="fill:#EEE4B8;" d="M115.186,297.979c34.813-39.434,42.17-36.086,79.658,0.198l0.763,0.733l0.546,0.902
	c1.912,3.094,8.879,11.903,15.667,11.903c0.067,0,0.131-0.004,0.198-0.004c5.089-0.131,10.907-5.699,16.381-15.682
	c1.972-3.353,18.638-34.75,39.973-34.75c0.239,0,0.479,0,0.718,0.007c11.308,0.322,20.864,12.105,28.404,26.739l0.359,0.793
	c1.717,4.352,7.184,13.624,13.074,14.368c4.688,0.584,10.99-4.195,17.714-13.485l0.655-0.797l37.522-40.108v-40.329
	c0,0-121.671-49.163-259.6,0v97.518C110.142,303.292,112.818,300.658,115.186,297.979z"/>
<path style="fill:#E4C88F;" d="M341.593,299.737c-10.619,14.507-21.687,21.115-32.797,19.693
	c-16.236-2.107-24.523-20.49-26.058-24.243c-3.169-6.058-8.135-13.141-14.114-13.324c-9.433-0.217-21.612,14.888-25.998,22.275
	c-8.527,15.562-18.765,26.986-30.282,27.236c-15.794,0.337-26.75-17.781-29.586-22.091c-14.686-14.121-23.233-19.667-29.365-19.177
	c-6.544,0.55-14.668,8.209-26.971,19.798c-5.339,5.036-11.704,11.019-19.214,17.609v43.939h259.6v-98.674L341.593,299.737z"/>
<path style="fill:#E7DDB3;" d="M115.186,297.979c34.813-39.434,42.17-36.086,79.658,0.198l0.763,0.733l0.546,0.902
	c1.912,3.094,8.879,11.903,15.667,11.903c0.067,0,0.131-0.004,0.198-0.004c5.089-0.131,10.907-5.699,16.381-15.682
	c0.917-1.557,4.992-9.145,11.229-16.838c0.326-0.4-1.658-92.564-1.658-92.564c-38.959-0.206-83.924,5.152-130.76,21.844v97.518
	C110.142,303.292,112.818,300.658,115.186,297.979z"/>
<path style="fill:#DCBF8D;" d="M237.901,312.033c-7.495,11.386-16.09,19.135-25.556,19.341
	c-15.794,0.337-26.75-17.781-29.586-22.091c-14.686-14.121-23.233-19.667-29.365-19.177c-6.544,0.55-14.668,8.209-26.971,19.798
	c-5.339,5.036-11.704,11.019-19.214,17.609v43.939l130.576-0.584L237.901,312.033z"/>
<path style="fill:#D5BA8A;" d="M107.209,370.509c0,0-1.467,15.487,5.818,20.494c5.19,3.566,64.706,5.504,124.241,5.635
	c59.531,0.131,119.074-1.538,124.309-5.182c5.691-3.959,5.235-20.003,5.235-20.003s-50.697-8.812-129.903-8.812
	S107.209,370.509,107.209,370.509z"/>
<path style="fill:#D2B488;" d="M107.209,370.509c0,0-1.467,15.487,5.818,20.494c5.19,3.566,65.23,5.504,124.762,5.635V362.64
	C158.583,362.64,107.209,370.509,107.209,370.509z"/>
<path style="fill:#DFC191;" d="M153.393,284.808c6.133-0.486,14.679,5.055,29.365,19.18c2.836,4.31,13.796,22.424,29.586,22.095
	c11.521-0.254,21.755-11.678,30.282-27.244c4.385-7.39,16.565-22.492,25.998-22.271c5.979,0.18,10.945,7.259,14.114,13.324
	c1.534,3.753,9.822,22.14,26.058,24.243c11.106,1.426,22.177-5.19,32.797-19.697l25.216-26.956v-23.988l-37.522,40.115l-0.655,0.789
	c-6.724,9.287-13.021,14.073-17.714,13.485c-5.89-0.745-11.356-10.013-13.074-14.365l-0.359-0.797
	c-7.54-14.627-17.096-26.417-28.404-26.735c-0.236-0.007-0.475-0.011-0.718-0.011c-21.336,0-37.998,31.401-39.973,34.75
	c-5.474,9.987-11.293,15.554-16.381,15.685c-0.067,0-0.131,0.004-0.198,0.004c-6.784,0-16.973-13.541-16.973-13.541
	c-37.492-36.276-44.845-39.633-79.658-0.198c-2.369,2.683-5.044,5.321-7.977,8.011v21.53c7.51-6.593,13.874-12.576,19.214-17.609
	C138.726,293.014,146.849,285.362,153.393,284.808z"/>
<path style="fill:#FFFFFA;" d="M153.393,290.106c6.133-0.49,14.679,5.055,29.365,19.177c2.836,4.311,13.796,22.428,29.586,22.091
	c11.521-0.251,21.755-11.674,30.282-27.236c4.385-7.39,16.565-22.492,25.998-22.275c5.979,0.183,10.945,7.263,14.114,13.324
	c1.534,3.757,9.822,22.14,26.058,24.243c11.106,1.422,22.177-5.186,32.797-19.693l25.216-26.959v-23.985l-37.522,40.108
	l-0.655,0.797c-6.724,9.287-13.021,14.069-17.714,13.485c-5.89-0.745-11.356-10.017-13.074-14.368l-0.359-0.793
	c-7.54-14.63-17.096-26.417-28.404-26.739c-0.236-0.007-0.475-0.007-0.718-0.007c-21.336,0-37.998,31.397-39.973,34.75
	c-5.474,9.983-11.293,15.551-16.381,15.682c-0.067,0-0.131,0.004-0.198,0.004c-6.784,0-16.973-13.538-16.973-13.538
	c-36.351-37.189-44.845-39.633-79.658-0.198c-2.369,2.683-5.044,5.317-7.977,8.007v21.53c7.51-6.589,13.874-12.572,19.214-17.609
	C138.726,298.316,146.849,290.66,153.393,290.106z"/>
<path style="fill:#DFC191;" d="M366.809,220.749v-12.28c0,0-121.671-49.163-259.6,0v12.28c0,0,65.455-17.747,126.909-17.747
	C295.569,203.002,366.809,220.749,366.809,220.749z"/>
</svg>